<?xml version="1.0" standalone="no"?>
<!DOCTYPE svg PUBLIC "-//W3C//DTD SVG 20010904//EN"
 "http://www.w3.org/TR/2001/REC-SVG-20010904/DTD/svg10.dtd">
<svg version="1.0" xmlns="http://www.w3.org/2000/svg"
 width="1920.000000pt" height="1920.000000pt" viewBox="0 0 1920.000000 1920.000000"
 preserveAspectRatio="xMidYMid meet">

<g transform="translate(0.000000,1920.000000) scale(0.100000,-0.100000)"
fill="#000000" stroke="none">
<path d="M9109 11682 c-146 -102 -228 -172 -304 -258 -111 -127 -115 -133 -25
-49 135 127 317 287 376 328 46 33 63 48 52 47 -2 -1 -46 -31 -99 -68z"/>
<path d="M3938 9063 c18 -2 45 -2 60 0 15 2 0 4 -33 4 -33 0 -45 -2 -27 -4z"/>
<path d="M14598 6553 c7 -3 16 -2 19 1 4 3 -2 6 -13 5 -11 0 -14 -3 -6 -6z"/>
<path d="M7240 5768 c40 -49 75 -88 77 -88 10 0 -63 92 -104 131 -34 33 -27
21 27 -43z"/>
</g>
</svg>
