<?xml version="1.0" standalone="no"?>
<!DOCTYPE svg PUBLIC "-//W3C//DTD SVG 20010904//EN"
 "http://www.w3.org/TR/2001/REC-SVG-20010904/DTD/svg10.dtd">
<svg version="1.0" xmlns="http://www.w3.org/2000/svg"
 width="1246.000000pt" height="1250.000000pt" viewBox="0 0 1246.000000 1250.000000"
 preserveAspectRatio="xMidYMid meet">

<g transform="translate(0.000000,1250.000000) scale(0.100000,-0.100000)"
fill="#000000" stroke="none">
<path d="M5750 12369 c-166 -12 -481 -52 -655 -84 -185 -34 -584 -133 -765
-191 -789 -252 -1533 -673 -2180 -1237 -136 -119 -410 -392 -534 -532 -577
-652 -1031 -1454 -1271 -2247 -137 -452 -208 -809 -257 -1303 -17 -173 -17
-864 0 -1040 46 -471 105 -786 224 -1200 423 -1474 1410 -2752 2738 -3547 783
-469 1610 -744 2545 -845 205 -22 934 -25 1150 -5 1473 138 2811 773 3835
1818 182 187 312 335 460 524 974 1248 1428 2828 1264 4400 -120 1155 -569
2263 -1283 3165 -167 211 -269 325 -495 550 -490 489 -994 850 -1611 1155
-723 357 -1477 562 -2280 620 -165 12 -706 11 -885 -1z m735 -1903 c224 -41
367 -87 562 -183 207 -101 379 -228 548 -404 364 -379 555 -854 555 -1379 0
-985 -729 -1828 -1700 -1964 -245 -34 -451 -28 -688 19 -814 165 -1444 831
-1567 1660 -20 131 -23 412 -6 535 32 233 87 416 187 620 296 608 852 1009
1529 1105 131 19 455 13 580 -9z m1795 -3456 c507 -167 935 -539 1160 -1005
50 -105 542 -1339 591 -1485 61 -177 80 -398 50 -570 -52 -298 -217 -577 -445
-754 -176 -136 -317 -200 -535 -240 -74 -14 -386 -16 -2901 -16 -2520 0 -2827
2 -2901 16 -470 89 -831 426 -957 894 -23 85 -26 114 -26 280 -1 236 6 269
140 610 277 711 460 1165 508 1265 220 451 606 799 1089 979 150 56 145 56
192 -6 22 -29 94 -109 160 -177 207 -214 419 -369 685 -500 322 -159 628 -235
995 -248 562 -19 1091 148 1550 491 133 100 360 321 445 434 63 83 51 81 200
32z"/>
</g>
</svg>
