<svg xmlns="http://www.w3.org/2000/svg" xmlns:xlink="http://www.w3.org/1999/xlink" width="1080" zoomAndPan="magnify" viewBox="0 0 810 809.999993" height="1080" preserveAspectRatio="xMidYMid meet" version="1.0"><defs><g/><clipPath id="e1f86d7972"><path d="M 48.734375 96 L 760.730469 96 L 760.730469 627 L 48.734375 627 Z M 48.734375 96 " clip-rule="nonzero"/></clipPath></defs><g clip-path="url(#e1f86d7972)"><path fill="#c6d3e3" d="M 679.832031 132.328125 C 720.546875 178.132812 705.277344 234.117188 654.382812 290.101562 C 562.773438 381.710938 364.28125 468.234375 160.703125 493.679688 C 125.074219 498.769531 84.359375 498.769531 48.734375 498.769531 C 89.449219 514.039062 135.253906 519.128906 181.058594 519.128906 C 231.957031 585.292969 308.296875 626.007812 394.820312 626.007812 C 522.058594 626.007812 628.9375 534.398438 659.472656 417.339844 C 603.488281 447.875 532.234375 473.324219 450.804688 483.503906 C 537.324219 452.964844 613.667969 412.25 664.5625 371.535156 C 771.441406 285.011719 807.070312 183.222656 679.832031 137.417969 Z M 593.308594 132.328125 C 593.308594 152.683594 608.578125 167.953125 628.9375 167.953125 C 649.292969 167.953125 664.5625 152.683594 664.5625 132.328125 C 664.5625 111.96875 649.292969 96.699219 628.9375 96.699219 C 608.578125 96.699219 593.308594 111.96875 593.308594 132.328125 Z M 593.308594 132.328125 " fill-opacity="1" fill-rule="evenodd"/></g><path fill="#98bad5" d="M 369.371094 173.042969 C 364.28125 147.59375 364.28125 117.058594 364.28125 91.609375 C 272.671875 101.789062 196.328125 157.773438 155.613281 234.117188 C 170.882812 229.027344 191.238281 223.9375 206.507812 218.847656 C 206.507812 203.578125 221.777344 193.402344 237.042969 193.402344 C 247.222656 193.402344 257.402344 198.492188 262.492188 208.667969 C 293.03125 203.578125 323.566406 198.492188 354.101562 198.492188 C 359.191406 188.3125 364.28125 183.222656 374.460938 178.132812 Z M 410.085938 178.132812 C 450.804688 157.773438 501.699219 147.59375 557.683594 142.507812 C 511.878906 106.878906 455.894531 86.523438 394.820312 86.523438 C 394.820312 86.523438 389.730469 86.523438 389.730469 86.523438 C 389.730469 111.96875 389.730469 142.507812 394.820312 167.953125 C 399.910156 167.953125 410.085938 173.042969 415.175781 178.132812 Z M 420.265625 198.492188 C 491.519531 208.667969 562.773438 234.117188 628.9375 285.011719 C 628.9375 285.011719 634.027344 279.921875 634.027344 279.921875 C 634.027344 279.921875 639.117188 274.832031 639.117188 274.832031 C 623.847656 234.117188 603.488281 198.492188 572.953125 167.953125 L 562.773438 167.953125 C 506.789062 167.953125 455.894531 183.222656 415.175781 198.492188 Z M 405 239.207031 C 420.265625 290.101562 440.625 340.996094 466.074219 386.800781 C 516.96875 361.355469 572.953125 335.90625 618.757812 295.191406 C 552.59375 249.386719 486.429688 223.9375 420.265625 213.757812 C 415.175781 223.9375 410.085938 229.027344 405 234.117188 Z M 359.191406 234.117188 C 282.851562 290.101562 231.957031 376.621094 181.058594 468.234375 C 186.148438 468.234375 191.238281 468.234375 196.328125 468.234375 C 282.851562 452.964844 369.371094 427.519531 450.804688 396.980469 C 420.265625 346.085938 399.910156 295.191406 384.640625 244.296875 C 374.460938 244.296875 364.28125 239.207031 359.191406 234.117188 Z M 349.015625 213.757812 C 323.566406 213.757812 293.027344 218.847656 262.492188 223.9375 C 262.492188 239.207031 247.222656 249.386719 231.957031 249.386719 C 221.777344 249.386719 211.597656 244.296875 206.507812 239.207031 C 186.148438 244.296875 165.792969 249.386719 145.433594 259.566406 L 135.253906 264.652344 C 125.074219 295.191406 114.898438 330.816406 114.898438 366.445312 C 114.898438 407.160156 125.074219 447.875 140.34375 483.503906 L 145.433594 483.503906 L 150.523438 478.414062 C 201.417969 376.625 257.402344 285.011719 338.835938 229.027344 Z M 349.015625 213.757812 " fill-opacity="1" fill-rule="evenodd"/><g fill="#98bad5" fill-opacity="1"><g transform="translate(184.314626, 743.92955)"><g><path d="M 33.890625 0.90625 C 27.984375 0.90625 22.789062 -0.078125 18.3125 -2.046875 C 13.84375 -4.015625 10.394531 -6.78125 7.96875 -10.34375 C 5.539062 -13.914062 4.328125 -18.085938 4.328125 -22.859375 L 4.328125 -24.796875 C 4.328125 -26.085938 4.96875 -26.734375 6.25 -26.734375 L 18.203125 -26.734375 C 19.492188 -26.734375 20.140625 -26.238281 20.140625 -25.25 L 20.140625 -23.65625 C 20.140625 -20.625 21.519531 -18.066406 24.28125 -15.984375 C 27.050781 -13.898438 30.675781 -12.859375 35.15625 -12.859375 C 39.164062 -12.859375 42.140625 -13.707031 44.078125 -15.40625 C 46.015625 -17.113281 46.984375 -19.21875 46.984375 -21.71875 C 46.984375 -23.539062 46.375 -25.078125 45.15625 -26.328125 C 43.945312 -27.578125 42.316406 -28.675781 40.265625 -29.625 C 38.222656 -30.570312 34.925781 -31.882812 30.375 -33.5625 C 25.21875 -35.300781 20.894531 -37.078125 17.40625 -38.890625 C 13.914062 -40.710938 10.957031 -43.195312 8.53125 -46.34375 C 6.101562 -49.5 4.890625 -53.390625 4.890625 -58.015625 C 4.890625 -62.566406 6.0625 -66.546875 8.40625 -69.953125 C 10.757812 -73.367188 14.039062 -75.984375 18.25 -77.796875 C 22.457031 -79.617188 27.253906 -80.53125 32.640625 -80.53125 C 38.410156 -80.53125 43.566406 -79.503906 48.109375 -77.453125 C 52.660156 -75.410156 56.207031 -72.550781 58.75 -68.875 C 61.289062 -65.195312 62.5625 -60.929688 62.5625 -56.078125 L 62.5625 -54.9375 C 62.5625 -53.644531 61.914062 -53 60.625 -53 L 48.6875 -53 C 47.394531 -53 46.75 -53.378906 46.75 -54.140625 L 46.75 -55.28125 C 46.75 -58.46875 45.441406 -61.175781 42.828125 -63.40625 C 40.210938 -65.644531 36.628906 -66.765625 32.078125 -66.765625 C 28.441406 -66.765625 25.632812 -66.003906 23.65625 -64.484375 C 21.6875 -62.972656 20.703125 -60.890625 20.703125 -58.234375 C 20.703125 -56.335938 21.269531 -54.742188 22.40625 -53.453125 C 23.539062 -52.171875 25.265625 -51 27.578125 -49.9375 C 29.890625 -48.875 33.472656 -47.507812 38.328125 -45.84375 C 43.640625 -43.875 47.847656 -42.148438 50.953125 -40.671875 C 54.066406 -39.191406 56.851562 -36.929688 59.3125 -33.890625 C 61.78125 -30.859375 63.015625 -26.957031 63.015625 -22.1875 C 63.015625 -17.5625 61.816406 -13.503906 59.421875 -10.015625 C 57.035156 -6.523438 53.660156 -3.832031 49.296875 -1.9375 C 44.941406 -0.0390625 39.804688 0.90625 33.890625 0.90625 Z M 33.890625 0.90625 "/></g></g></g><g fill="#98bad5" fill-opacity="1"><g transform="translate(251.651648, 743.92955)"><g><path d="M 39.46875 -47.546875 C 39.46875 -46.253906 38.820312 -45.609375 37.53125 -45.609375 L 27.296875 -45.609375 C 26.847656 -45.609375 26.625 -45.382812 26.625 -44.9375 L 26.625 -21.390625 C 26.625 -18.878906 27.132812 -17.035156 28.15625 -15.859375 C 29.175781 -14.691406 30.820312 -14.109375 33.09375 -14.109375 L 36.28125 -14.109375 C 37.570312 -14.109375 38.21875 -13.460938 38.21875 -12.171875 L 38.21875 -2.390625 C 38.21875 -1.171875 37.570312 -0.488281 36.28125 -0.34375 C 33.40625 -0.1875 31.320312 -0.109375 30.03125 -0.109375 C 23.738281 -0.109375 19.035156 -1.171875 15.921875 -3.296875 C 12.816406 -5.421875 11.222656 -9.363281 11.140625 -15.125 L 11.140625 -44.9375 C 11.140625 -45.382812 10.914062 -45.609375 10.46875 -45.609375 L 4.65625 -45.609375 C 3.375 -45.609375 2.734375 -46.253906 2.734375 -47.546875 L 2.734375 -56.53125 C 2.734375 -57.820312 3.375 -58.46875 4.65625 -58.46875 L 10.46875 -58.46875 C 10.914062 -58.46875 11.140625 -58.695312 11.140625 -59.15625 L 11.140625 -72 C 11.140625 -73.289062 11.785156 -73.9375 13.078125 -73.9375 L 24.6875 -73.9375 C 25.976562 -73.9375 26.625 -73.289062 26.625 -72 L 26.625 -59.15625 C 26.625 -58.695312 26.847656 -58.46875 27.296875 -58.46875 L 37.53125 -58.46875 C 38.820312 -58.46875 39.46875 -57.820312 39.46875 -56.53125 Z M 39.46875 -47.546875 "/></g></g></g><g fill="#98bad5" fill-opacity="1"><g transform="translate(294.874733, 743.92955)"><g><path d="M 40.046875 -56.53125 C 40.046875 -57.820312 40.6875 -58.46875 41.96875 -58.46875 L 54.140625 -58.46875 C 55.429688 -58.46875 56.078125 -57.820312 56.078125 -56.53125 L 56.078125 -1.9375 C 56.078125 -0.644531 55.429688 0 54.140625 0 L 41.96875 0 C 40.6875 0 40.046875 -0.644531 40.046875 -1.9375 L 40.046875 -5 C 40.046875 -5.300781 39.945312 -5.472656 39.75 -5.515625 C 39.5625 -5.554688 39.394531 -5.460938 39.25 -5.234375 C 36.289062 -1.210938 31.625 0.796875 25.25 0.796875 C 19.488281 0.796875 14.75 -0.945312 11.03125 -4.4375 C 7.3125 -7.925781 5.453125 -12.816406 5.453125 -19.109375 L 5.453125 -56.53125 C 5.453125 -57.820312 6.097656 -58.46875 7.390625 -58.46875 L 19.453125 -58.46875 C 20.742188 -58.46875 21.390625 -57.820312 21.390625 -56.53125 L 21.390625 -23.09375 C 21.390625 -20.0625 22.203125 -17.597656 23.828125 -15.703125 C 25.460938 -13.804688 27.71875 -12.859375 30.59375 -12.859375 C 33.175781 -12.859375 35.300781 -13.632812 36.96875 -15.1875 C 38.632812 -16.738281 39.660156 -18.765625 40.046875 -21.265625 Z M 40.046875 -56.53125 "/></g></g></g><g fill="#98bad5" fill-opacity="1"><g transform="translate(356.865737, 743.92955)"><g><path d="M 41.171875 -77.6875 C 41.171875 -78.976562 41.816406 -79.625 43.109375 -79.625 L 55.28125 -79.625 C 56.570312 -79.625 57.21875 -78.976562 57.21875 -77.6875 L 57.21875 -1.9375 C 57.21875 -0.644531 56.570312 0 55.28125 0 L 43.109375 0 C 41.816406 0 41.171875 -0.644531 41.171875 -1.9375 L 41.171875 -5 C 41.171875 -5.300781 41.078125 -5.472656 40.890625 -5.515625 C 40.703125 -5.554688 40.53125 -5.460938 40.375 -5.234375 C 37.269531 -1.140625 32.945312 0.90625 27.40625 0.90625 C 22.25 0.90625 17.679688 -0.625 13.703125 -3.6875 C 9.722656 -6.757812 6.972656 -10.800781 5.453125 -15.8125 C 4.171875 -19.445312 3.53125 -24 3.53125 -29.46875 C 3.53125 -35.070312 4.25 -39.769531 5.6875 -43.5625 C 7.351562 -48.414062 10.097656 -52.28125 13.921875 -55.15625 C 17.753906 -58.039062 22.25 -59.484375 27.40625 -59.484375 C 33.019531 -59.484375 37.34375 -57.628906 40.375 -53.921875 C 40.53125 -53.691406 40.703125 -53.613281 40.890625 -53.6875 C 41.078125 -53.757812 41.171875 -53.953125 41.171875 -54.265625 Z M 38.78125 -17.96875 C 40.300781 -20.78125 41.0625 -24.535156 41.0625 -29.234375 C 41.0625 -34.234375 40.265625 -38.140625 38.671875 -40.953125 C 36.773438 -43.910156 34.234375 -45.390625 31.046875 -45.390625 C 27.566406 -45.390625 24.914062 -43.945312 23.09375 -41.0625 C 21.269531 -38.03125 20.359375 -34.050781 20.359375 -29.125 C 20.359375 -24.644531 21.15625 -20.925781 22.75 -17.96875 C 24.570312 -14.707031 27.335938 -13.078125 31.046875 -13.078125 C 34.390625 -13.078125 36.96875 -14.707031 38.78125 -17.96875 Z M 38.78125 -17.96875 "/></g></g></g><g fill="#98bad5" fill-opacity="1"><g transform="translate(420.221671, 743.92955)"><g><path d="M 5.578125 22.640625 C 5.046875 22.640625 4.78125 21.992188 4.78125 20.703125 L 4.78125 11.375 C 4.78125 10.082031 5.003906 9.4375 5.453125 9.4375 L 6.140625 9.4375 C 10.835938 9.4375 14.191406 8.847656 16.203125 7.671875 C 18.210938 6.503906 19.675781 4.097656 20.59375 0.453125 C 20.738281 0.078125 20.738281 -0.222656 20.59375 -0.453125 L 2.28125 -56.3125 C 2.195312 -56.457031 2.15625 -56.679688 2.15625 -56.984375 C 2.15625 -57.441406 2.304688 -57.800781 2.609375 -58.0625 C 2.921875 -58.332031 3.34375 -58.46875 3.875 -58.46875 L 16.953125 -58.46875 C 18.015625 -58.46875 18.734375 -57.9375 19.109375 -56.875 L 28.4375 -22.984375 C 28.507812 -22.671875 28.660156 -22.515625 28.890625 -22.515625 C 29.117188 -22.515625 29.269531 -22.671875 29.34375 -22.984375 L 38.21875 -56.765625 C 38.445312 -57.898438 39.164062 -58.46875 40.375 -58.46875 L 53.46875 -58.46875 C 54.144531 -58.46875 54.632812 -58.257812 54.9375 -57.84375 C 55.238281 -57.425781 55.28125 -56.914062 55.0625 -56.3125 L 35.609375 2.15625 C 33.710938 7.695312 31.773438 11.847656 29.796875 14.609375 C 27.828125 17.378906 25.0625 19.410156 21.5 20.703125 C 17.9375 21.992188 12.894531 22.640625 6.375 22.640625 Z M 5.578125 22.640625 "/></g></g></g><g fill="#ffffff" fill-opacity="1"><g transform="translate(451.568627, 753.317246)"><g><path d="M 10.71875 0.28125 C 8.96875 0.28125 7.4375 0.00390625 6.125 -0.546875 C 4.820312 -1.097656 3.816406 -1.878906 3.109375 -2.890625 C 2.398438 -3.910156 2.046875 -5.09375 2.046875 -6.4375 L 2.046875 -7.453125 C 2.046875 -7.765625 2.203125 -7.921875 2.515625 -7.921875 L 4.0625 -7.921875 C 4.375 -7.921875 4.53125 -7.765625 4.53125 -7.453125 L 4.53125 -6.578125 C 4.53125 -5.210938 5.101562 -4.097656 6.25 -3.234375 C 7.40625 -2.367188 8.957031 -1.9375 10.90625 -1.9375 C 12.75 -1.9375 14.148438 -2.328125 15.109375 -3.109375 C 16.066406 -3.890625 16.546875 -4.925781 16.546875 -6.21875 C 16.546875 -7.0625 16.320312 -7.78125 15.875 -8.375 C 15.4375 -8.976562 14.757812 -9.546875 13.84375 -10.078125 C 12.9375 -10.609375 11.632812 -11.21875 9.9375 -11.90625 C 8.132812 -12.625 6.734375 -13.253906 5.734375 -13.796875 C 4.742188 -14.335938 3.941406 -15.035156 3.328125 -15.890625 C 2.710938 -16.742188 2.40625 -17.816406 2.40625 -19.109375 C 2.40625 -21.117188 3.109375 -22.679688 4.515625 -23.796875 C 5.921875 -24.921875 7.859375 -25.484375 10.328125 -25.484375 C 12.960938 -25.484375 15.046875 -24.859375 16.578125 -23.609375 C 18.117188 -22.359375 18.890625 -20.703125 18.890625 -18.640625 L 18.890625 -17.953125 C 18.890625 -17.640625 18.734375 -17.484375 18.421875 -17.484375 L 16.84375 -17.484375 C 16.53125 -17.484375 16.375 -17.640625 16.375 -17.953125 L 16.375 -18.5 C 16.375 -19.882812 15.832031 -21.019531 14.75 -21.90625 C 13.675781 -22.800781 12.15625 -23.25 10.1875 -23.25 C 8.476562 -23.25 7.175781 -22.898438 6.28125 -22.203125 C 5.382812 -21.503906 4.9375 -20.492188 4.9375 -19.171875 C 4.9375 -18.316406 5.15625 -17.601562 5.59375 -17.03125 C 6.039062 -16.46875 6.675781 -15.976562 7.5 -15.5625 C 8.332031 -15.144531 9.597656 -14.597656 11.296875 -13.921875 C 13.046875 -13.203125 14.460938 -12.53125 15.546875 -11.90625 C 16.628906 -11.28125 17.492188 -10.519531 18.140625 -9.625 C 18.785156 -8.726562 19.109375 -7.628906 19.109375 -6.328125 C 19.109375 -4.335938 18.367188 -2.738281 16.890625 -1.53125 C 15.421875 -0.320312 13.363281 0.28125 10.71875 0.28125 Z M 10.71875 0.28125 "/></g></g></g><g fill="#ffffff" fill-opacity="1"><g transform="translate(482.405334, 753.317246)"><g><path d="M 12.953125 -25.21875 C 15.066406 -25.21875 16.765625 -24.570312 18.046875 -23.28125 C 19.328125 -21.988281 19.96875 -20.285156 19.96875 -18.171875 C 19.96875 -16.085938 19.3125 -14.410156 18 -13.140625 C 16.695312 -11.867188 14.976562 -11.234375 12.84375 -11.234375 L 5.859375 -11.234375 C 5.742188 -11.234375 5.6875 -11.171875 5.6875 -11.046875 L 5.6875 -0.46875 C 5.6875 -0.15625 5.53125 0 5.21875 0 L 3.59375 0 C 3.28125 0 3.125 -0.15625 3.125 -0.46875 L 3.125 -24.75 C 3.125 -25.0625 3.28125 -25.21875 3.59375 -25.21875 Z M 12.671875 -13.34375 C 14.085938 -13.34375 15.238281 -13.78125 16.125 -14.65625 C 17.007812 -15.539062 17.453125 -16.703125 17.453125 -18.140625 C 17.453125 -19.597656 17.007812 -20.769531 16.125 -21.65625 C 15.238281 -22.550781 14.085938 -23 12.671875 -23 L 5.859375 -23 C 5.742188 -23 5.6875 -22.9375 5.6875 -22.8125 L 5.6875 -13.53125 C 5.6875 -13.40625 5.742188 -13.34375 5.859375 -13.34375 Z M 12.671875 -13.34375 "/></g></g></g><g fill="#ffffff" fill-opacity="1"><g transform="translate(513.457883, 753.317246)"><g><path d="M 17.703125 -24.71875 C 17.703125 -25.03125 17.859375 -25.1875 18.171875 -25.1875 L 19.796875 -25.1875 C 20.109375 -25.1875 20.265625 -25.03125 20.265625 -24.71875 L 20.265625 -0.46875 C 20.265625 -0.15625 20.109375 0 19.796875 0 L 18.171875 0 C 17.859375 0 17.703125 -0.15625 17.703125 -0.46875 L 17.703125 -11.375 C 17.703125 -11.488281 17.644531 -11.546875 17.53125 -11.546875 L 6.125 -11.546875 C 6 -11.546875 5.9375 -11.488281 5.9375 -11.375 L 5.9375 -0.46875 C 5.9375 -0.15625 5.78125 0 5.46875 0 L 3.84375 0 C 3.53125 0 3.375 -0.15625 3.375 -0.46875 L 3.375 -24.71875 C 3.375 -25.03125 3.53125 -25.1875 3.84375 -25.1875 L 5.46875 -25.1875 C 5.78125 -25.1875 5.9375 -25.03125 5.9375 -24.71875 L 5.9375 -13.96875 C 5.9375 -13.84375 6 -13.78125 6.125 -13.78125 L 17.53125 -13.78125 C 17.644531 -13.78125 17.703125 -13.84375 17.703125 -13.96875 Z M 17.703125 -24.71875 "/></g></g></g><g fill="#ffffff" fill-opacity="1"><g transform="translate(546.740647, 753.317246)"><g><path d="M 19.6875 -23.421875 C 19.6875 -23.109375 19.53125 -22.953125 19.21875 -22.953125 L 6.125 -22.953125 C 6 -22.953125 5.9375 -22.894531 5.9375 -22.78125 L 5.9375 -13.96875 C 5.9375 -13.84375 6 -13.78125 6.125 -13.78125 L 15.25 -13.78125 C 15.5625 -13.78125 15.71875 -13.625 15.71875 -13.3125 L 15.71875 -12.015625 C 15.71875 -11.703125 15.5625 -11.546875 15.25 -11.546875 L 6.125 -11.546875 C 6 -11.546875 5.9375 -11.488281 5.9375 -11.375 L 5.9375 -2.40625 C 5.9375 -2.289062 6 -2.234375 6.125 -2.234375 L 19.21875 -2.234375 C 19.53125 -2.234375 19.6875 -2.078125 19.6875 -1.765625 L 19.6875 -0.46875 C 19.6875 -0.15625 19.53125 0 19.21875 0 L 3.84375 0 C 3.53125 0 3.375 -0.15625 3.375 -0.46875 L 3.375 -24.71875 C 3.375 -25.03125 3.53125 -25.1875 3.84375 -25.1875 L 19.21875 -25.1875 C 19.53125 -25.1875 19.6875 -25.03125 19.6875 -24.71875 Z M 19.6875 -23.421875 "/></g></g></g><g fill="#ffffff" fill-opacity="1"><g transform="translate(578.260804, 753.317246)"><g><path d="M 18.171875 0 C 17.910156 0 17.71875 -0.117188 17.59375 -0.359375 L 12.34375 -11.4375 C 12.289062 -11.539062 12.21875 -11.59375 12.125 -11.59375 L 6.125 -11.59375 C 6 -11.59375 5.9375 -11.53125 5.9375 -11.40625 L 5.9375 -0.46875 C 5.9375 -0.15625 5.78125 0 5.46875 0 L 3.84375 0 C 3.53125 0 3.375 -0.15625 3.375 -0.46875 L 3.375 -24.75 C 3.375 -25.0625 3.53125 -25.21875 3.84375 -25.21875 L 13.0625 -25.21875 C 15.125 -25.21875 16.789062 -24.582031 18.0625 -23.3125 C 19.332031 -22.039062 19.96875 -20.375 19.96875 -18.3125 C 19.96875 -16.632812 19.515625 -15.210938 18.609375 -14.046875 C 17.710938 -12.890625 16.488281 -12.128906 14.9375 -11.765625 C 14.8125 -11.742188 14.773438 -11.671875 14.828125 -11.546875 L 20.1875 -0.546875 C 20.238281 -0.441406 20.265625 -0.367188 20.265625 -0.328125 C 20.265625 -0.109375 20.117188 0 19.828125 0 Z M 6.125 -23 C 6 -23 5.9375 -22.9375 5.9375 -22.8125 L 5.9375 -13.8125 C 5.9375 -13.695312 6 -13.640625 6.125 -13.640625 L 12.78125 -13.640625 C 14.164062 -13.640625 15.289062 -14.0625 16.15625 -14.90625 C 17.019531 -15.757812 17.453125 -16.882812 17.453125 -18.28125 C 17.453125 -19.664062 17.019531 -20.796875 16.15625 -21.671875 C 15.289062 -22.554688 14.164062 -23 12.78125 -23 Z M 6.125 -23 "/></g></g></g><g fill="#ffffff" fill-opacity="1"><g transform="translate(610.032782, 753.317246)"><g><path d="M 19.6875 -23.421875 C 19.6875 -23.109375 19.53125 -22.953125 19.21875 -22.953125 L 6.125 -22.953125 C 6 -22.953125 5.9375 -22.894531 5.9375 -22.78125 L 5.9375 -13.96875 C 5.9375 -13.84375 6 -13.78125 6.125 -13.78125 L 15.25 -13.78125 C 15.5625 -13.78125 15.71875 -13.625 15.71875 -13.3125 L 15.71875 -12.015625 C 15.71875 -11.703125 15.5625 -11.546875 15.25 -11.546875 L 6.125 -11.546875 C 6 -11.546875 5.9375 -11.488281 5.9375 -11.375 L 5.9375 -2.40625 C 5.9375 -2.289062 6 -2.234375 6.125 -2.234375 L 19.21875 -2.234375 C 19.53125 -2.234375 19.6875 -2.078125 19.6875 -1.765625 L 19.6875 -0.46875 C 19.6875 -0.15625 19.53125 0 19.21875 0 L 3.84375 0 C 3.53125 0 3.375 -0.15625 3.375 -0.46875 L 3.375 -24.71875 C 3.375 -25.03125 3.53125 -25.1875 3.84375 -25.1875 L 19.21875 -25.1875 C 19.53125 -25.1875 19.6875 -25.03125 19.6875 -24.71875 Z M 19.6875 -23.421875 "/></g></g></g></svg>