<svg xmlns="http://www.w3.org/2000/svg" xmlns:xlink="http://www.w3.org/1999/xlink" width="1080" zoomAndPan="magnify" viewBox="0 0 810 809.999993" height="1080" preserveAspectRatio="xMidYMid meet" version="1.0"><rect x="-81" width="972" fill="#ffffff" y="-80.999999" height="971.999992" fill-opacity="1"/><rect x="-81" width="972" fill="#ffffff" y="-80.999999" height="971.999992" fill-opacity="1"/><path fill="#fadb5e" d="M 263.953125 73.511719 C 263.074219 69.992188 259.726562 67.878906 256.207031 68.757812 C 253.917969 69.289062 251.980469 71.222656 251.453125 73.511719 C 240.183594 115.769531 212.359375 193.769531 151.082031 241.484375 C 108.46875 274.582031 58.636719 297.472656 5.8125 308.210938 C 2.289062 308.917969 0 312.261719 0.703125 315.785156 C 1.234375 318.25 2.992188 320.007812 5.28125 320.714844 C 48.246094 332.6875 122.910156 358.921875 160.765625 403.464844 C 190.703125 438.679688 217.292969 526.890625 228.914062 570.027344 C 229.96875 573.371094 233.492188 575.484375 236.835938 574.429688 C 238.949219 573.898438 240.710938 572.140625 241.238281 570.027344 C 253.214844 526.1875 284.203125 435.511719 342.136719 396.953125 C 393.90625 362.441406 451.488281 345.1875 484.0625 337.441406 C 487.585938 336.558594 489.523438 333.039062 488.640625 329.515625 C 488.113281 327.40625 486.527344 325.644531 484.414062 325.117188 C 445.148438 313.496094 372.070312 287.261719 342.136719 247.996094 C 295.648438 187.078125 273.464844 113.65625 263.953125 73.511719 Z M 589.539062 435.335938 C 589.011719 433.222656 586.898438 431.988281 584.785156 432.515625 C 583.375 432.871094 582.320312 433.925781 581.96875 435.335938 C 575.101562 461.214844 558.019531 508.929688 520.511719 537.980469 C 494.453125 558.230469 463.988281 572.140625 431.589844 578.652344 C 429.476562 579.007812 428.066406 581.117188 428.59375 583.230469 C 428.949219 584.640625 430.003906 585.871094 431.414062 586.226562 C 457.648438 593.621094 503.433594 609.464844 526.5 636.757812 C 544.8125 658.238281 561.011719 712.289062 568.234375 738.699219 C 568.761719 740.8125 571.050781 742.046875 572.988281 741.519531 C 574.394531 741.164062 575.277344 740.109375 575.804688 738.699219 C 583.199219 711.9375 602.042969 656.476562 637.433594 632.882812 C 669.128906 611.753906 704.347656 601.191406 724.246094 596.4375 C 726.359375 595.910156 727.589844 593.796875 727.0625 591.683594 C 726.710938 590.273438 725.652344 589.21875 724.421875 588.867188 C 700.296875 581.648438 655.746094 565.800781 637.433594 541.679688 C 608.910156 504.882812 595.351562 459.984375 589.539062 435.335938 Z M 718.257812 140.949219 C 717.90625 139.539062 716.496094 138.660156 715.089844 139.011719 C 714.207031 139.1875 713.503906 139.890625 713.152344 140.949219 C 708.574219 158.203125 697.304688 189.71875 672.300781 209.085938 C 655.042969 222.46875 634.792969 231.800781 613.3125 236.199219 C 611.902344 236.554688 611.023438 237.785156 611.199219 239.195312 C 611.375 240.25 612.078125 240.953125 613.132812 241.128906 C 630.566406 246.0625 660.855469 256.625 676.351562 274.761719 C 688.5 289.019531 699.242188 324.9375 703.996094 342.371094 C 704.347656 343.777344 705.757812 344.484375 707.164062 344.128906 C 708.046875 343.953125 708.75 343.25 708.925781 342.371094 C 713.855469 324.585938 726.359375 287.789062 749.953125 272.117188 C 770.910156 258.035156 794.328125 251.167969 807.710938 247.996094 C 809.121094 247.644531 810 246.238281 809.648438 244.828125 C 809.472656 243.949219 808.765625 243.242188 807.886719 242.890625 C 791.863281 238.136719 762.28125 227.574219 750.128906 211.550781 C 731.289062 187.078125 722.132812 157.320312 718.257812 140.949219 Z M 718.257812 140.949219 " fill-opacity="1" fill-rule="nonzero"/></svg>