<?xml version="1.0" standalone="no"?>
<!DOCTYPE svg PUBLIC "-//W3C//DTD SVG 20010904//EN"
 "http://www.w3.org/TR/2001/REC-SVG-20010904/DTD/svg10.dtd">
<svg version="1.0" xmlns="http://www.w3.org/2000/svg"
 width="360.000000pt" height="360.000000pt" viewBox="0 0 360.000000 360.000000"
 preserveAspectRatio="xMidYMid meet">

<g transform="translate(0.000000,360.000000) scale(0.100000,-0.100000)"
fill="#000000" stroke="none">
<path d="M1483 3239 c-60 -30 -143 -123 -185 -210 -59 -119 -100 -296 -113
-479 -6 -92 -4 -91 40 30 38 103 80 178 206 365 147 219 174 281 130 305 -26
14 -30 13 -78 -11z m54 -61 c-8 -19 -61 -104 -118 -189 -56 -85 -122 -190
-146 -234 -48 -89 -52 -80 -23 45 42 176 109 305 194 375 78 64 119 65 93 3z"/>
<path d="M942 2798 c-24 -24 -10 -70 66 -220 43 -84 90 -180 104 -213 l26 -60
1 83 c1 110 -22 221 -65 309 -46 96 -98 135 -132 101z m85 -71 c14 -23 35 -66
46 -97 17 -49 47 -184 47 -213 0 -6 -38 65 -85 158 -47 92 -85 176 -85 185 0
44 38 28 77 -33z"/>
<path d="M1489 2760 c-88 -47 -215 -228 -264 -378 -24 -76 -15 -82 29 -17 42
63 97 120 229 239 97 86 129 134 107 161 -17 20 -57 18 -101 -5z m64 -41 c-10
-17 -64 -72 -120 -121 -56 -49 -113 -105 -128 -124 -39 -51 -42 -34 -5 34 67
125 186 242 247 242 l24 0 -18 -31z"/>
<path d="M1070 2243 c-250 -25 -506 -165 -660 -359 -69 -86 -143 -231 -166
-324 -21 -83 -21 -260 0 -357 53 -247 222 -447 486 -578 50 -24 83 -48 97 -69
72 -110 187 -216 235 -216 10 0 25 12 35 26 14 22 15 35 7 82 l-9 57 188 -2
188 -2 41 -36 c101 -92 183 -119 224 -74 15 17 19 36 19 94 l-1 73 86 22 c107
28 255 83 341 126 209 105 428 293 536 461 l59 92 33 -20 c57 -35 145 -52 202
-40 74 16 118 42 206 123 44 40 96 82 117 93 54 29 46 54 -29 85 -53 22 -75
25 -191 25 -127 0 -132 -1 -192 -32 l-62 -32 0 52 c0 82 -45 166 -139 257 -84
81 -144 121 -161 104 -6 -6 -4 -26 5 -58 9 -30 15 -91 15 -157 0 -125 22 -211
71 -279 23 -32 28 -45 18 -51 -48 -30 -289 -42 -383 -20 -145 35 -225 109
-319 297 -165 329 -352 527 -564 597 -45 15 -121 31 -169 37 -89 10 -98 10
-164 3z m265 -69 c226 -59 414 -248 591 -594 74 -143 139 -216 235 -264 96
-48 161 -59 309 -54 94 4 138 10 179 26 66 26 75 38 52 71 -65 93 -89 181 -93
353 -3 94 -2 105 12 98 31 -17 160 -160 181 -202 24 -46 30 -117 15 -180 -10
-44 4 -51 38 -19 12 11 46 32 76 47 87 44 245 46 355 4 l26 -10 -48 -37 c-26
-20 -76 -62 -110 -93 -105 -98 -191 -112 -314 -50 -33 17 -64 30 -69 28 -5 -2
-41 -48 -81 -103 -104 -145 -173 -219 -270 -295 -158 -122 -324 -204 -529
-263 -134 -39 -150 -41 -150 -23 0 26 -61 209 -83 249 -18 33 -47 51 -47 29 0
-5 18 -56 40 -115 52 -137 72 -224 68 -301 -3 -58 -4 -61 -30 -64 -15 -2 -40
4 -56 12 -80 42 -217 199 -297 344 -22 39 -43 72 -47 72 -29 1 23 -119 97
-227 24 -34 41 -64 37 -67 -3 -3 -55 -6 -116 -6 -520 0 -937 277 -1020 677
l-14 64 27 11 c14 6 84 11 156 12 123 1 135 -1 224 -33 63 -22 97 -29 103 -23
15 15 -42 47 -137 78 -94 30 -238 35 -318 10 -43 -13 -49 -13 -54 1 -11 29 16
211 42 280 105 279 387 510 693 568 92 17 239 13 327 -11z"/>
<path d="M1102 2153 c3 -14 13 -18 48 -18 35 0 45 4 48 18 3 14 -4 17 -48 17
-44 0 -51 -3 -48 -17z"/>
<path d="M1049 1408 c-34 -11 -49 -45 -37 -81 17 -48 92 -51 118 -4 13 24 13
30 0 53 -18 33 -47 44 -81 32z m21 -28 c0 -5 -7 -10 -15 -10 -8 0 -15 5 -15
10 0 6 7 10 15 10 8 0 15 -4 15 -10z"/>
</g>
</svg>
